<svg id="Layer_1" data-name="Layer 1" xmlns="http://www.w3.org/2000/svg" viewBox="0 0 256.54 50"><defs><style>.cls-1{fill:#fff;}</style></defs><title>vote-logo-reverse</title><path class="cls-1" d="M34.11,54.59H18.83L3.76,4.59H18.19l8.5,36.14,8.5-36.14h14Z" transform="translate(-3.76 -4.59)"/><path class="cls-1" d="M61.22,54.59c-6.57,0-9.71-3.14-9.71-9.71V14.3c0-6.57,3.14-9.71,9.71-9.71H81.29C87.87,4.59,91,7.73,91,14.3V44.88c0,6.57-3.14,9.71-9.71,9.71H61.22Zm3.71-12.43a1,1,0,0,0,1.29,1.29H76.29a1,1,0,0,0,1.29-1.29V17a1,1,0,0,0-1.29-1.29H66.22A1,1,0,0,0,64.94,17V42.16Z" transform="translate(-3.76 -4.59)"/><rect class="cls-1" x="133.42" width="38.43" height="11.14"/><polygon class="cls-1" points="91.19 0 91.19 11.14 103.69 11.14 103.69 50 117.12 50 117.12 11.14 129.62 11.14 129.62 0 91.19 0"/><rect class="cls-1" x="133.42" y="18.93" width="38.43" height="11"/><rect class="cls-1" x="133.42" y="38.86" width="23.41" height="11.14"/><rect class="cls-1" x="160.71" y="38.86" width="11.14" height="11.14"/><path class="cls-1" d="M185.49,54.59c-4.08,0-6-2-6-6v-19c0-4.08,2-6,6-6H198c4.08,0,6,2,6,6v19c0,4.08-2,6-6,6H185.49Zm2.31-7.72a0.65,0.65,0,0,0,.8.8h6.26a0.65,0.65,0,0,0,.8-0.8V31.24a0.65,0.65,0,0,0-.8-0.8h-6.26a0.65,0.65,0,0,0-.8.8V46.87Z" transform="translate(-3.76 -4.59)"/><path class="cls-1" d="M224.95,54.59L219.67,44.2h-3.42V54.59H207.9V23.52h18.2c4.08,0,6,2,6,6v8.08c0,3.42-1.38,5.33-4.22,5.9l5.46,11.05h-8.43Zm-2-17a0.65,0.65,0,0,0,.8-0.8V31.06a0.65,0.65,0,0,0-.8-0.8h-6.75v7.37H223Z" transform="translate(-3.76 -4.59)"/><path class="cls-1" d="M252,31.15a0.65,0.65,0,0,0-.8-0.8h-6.12a0.65,0.65,0,0,0-.8.8V47a0.65,0.65,0,0,0,.8.8h6.12A0.65,0.65,0,0,0,252,47V43h-4.57V36.48H260.3V48.55c0,4.08-2,6-6,6H242c-4.08,0-6-2-6-6v-19c0-4.08,2-6,6-6h12.25c4.08,0,6,2,6,6v4.22H252V31.15Z" transform="translate(-3.76 -4.59)"/></svg>